# xmcd
#
# Track frame offsets:
#	150
#	11135
#	25519
#	36484
#	50186
#	61911
#	71783
#	87002
#	99734
#	114000
#	127737
#	141351
#	156587
#	169656
#	182475
#	195341
#	216711
#	232427
#
# Disc length: 3297 seconds
#
# Revision: 1
# Processed by: cddbd v1.5.2PL0 Copyright (c) Steve Scherf et al.
# Submitted via: audiograbber 1.83.01
#
DISCID=060cdf12
DTITLE=Nino Ferrer - Les 50 Plus Belles Chansons  - CD1
DYEAR=2007
DGENRE=Chanson Francaise
TTITLE0=Au Bout De Mes Vingt Ans - Album Version
TTITLE1=Tchouk-Ou-Tchouk - Album Version
TTITLE2=Mirza - Album Version
TTITLE3=Les Cornichons - Album Version
TTITLE4=Alexandre - Album Version
TTITLE5=Oh He Hein Bon - Album Version
TTITLE6=Je Veux Etre Noir - Album Version
TTITLE7=Le Telefon - Album Version
TTITLE8=Je Cherche Une Petite Fille - Album Version
TTITLE9=Madame Robert - Album Version
TTITLE10=Le Millionnaire - Album Version
TTITLE11=Mao Et Moa - Album Version
TTITLE12=Mon Copain Bismark - Album Version
TTITLE13=Le Roi D'Angleterre - Album Version
TTITLE14=Les Petites Jeunes Filles De Bonne Famille - Album Version
TTITLE15=Ma Vie Pour Rien - Album Version
TTITLE16=Les Yeux De Laurence - Album Version
TTITLE17=Je Vends Des Robes - Album Version
EXTD=
EXTT0=
EXTT1=
EXTT2=
EXTT3=
EXTT4=
EXTT5=
EXTT6=
EXTT7=
EXTT8=
EXTT9=
EXTT10=
EXTT11=
EXTT12=
EXTT13=
EXTT14=
EXTT15=
EXTT16=
EXTT17=
PLAYORDER=
